# xmcd
#
# Track frame offsets:
#	150
#	15923
#	26447
#	38268
#	48076
#	59628
#	74502
#	89381
#	101771
#	112852
#	124996
#	137137
#	147572
#	159177
#	171235
#
# Disc length: 2444 seconds
#
# Revision: 1
# Processed by: cddbd v1.5.2PL0 Copyright (c) Steve Scherf et al.
# Submitted via: audiograbber 1.83.01
#
DISCID=c4098a0f
DTITLE=220 South - Long Journey Home
DYEAR=1900
DGENRE=Bluegrass
TTITLE0=Salt Creek
TTITLE1=Why Don't You Tell Me
TTITLE2=Worried Man Blues
TTITLE3=I Wonder How The Old Folks Are At Home
TTITLE4=The Girl From West Virginia
TTITLE5=Ol' Joe Clark
TTITLE6=Winter In Miami
TTITLE7=Old Hometown
TTITLE8=Just Another Day To Cry
TTITLE9=Little Girl Of Mine In Tennessee
TTITLE10=In The Gravel Yard
TTITLE11=Crying Holy Unto The Lord
TTITLE12=Somedaty When You're Lonely
TTITLE13=Pike County Breakdown
TTITLE14=Long Journey Home (Two Dollar Bill)
EXTD=
EXTT0=
EXTT1=
EXTT2=
EXTT3=
EXTT4=
EXTT5=
EXTT6=
EXTT7=
EXTT8=
EXTT9=
EXTT10=
EXTT11=
EXTT12=
EXTT13=
EXTT14=
PLAYORDER=
